<?xml version="1.0" standalone="no"?>
<!DOCTYPE svg PUBLIC "-//W3C//DTD SVG 20010904//EN"
 "http://www.w3.org/TR/2001/REC-SVG-20010904/DTD/svg10.dtd">
<svg version="1.0" xmlns="http://www.w3.org/2000/svg"
 width="34" height="34" viewBox="0 0 512.000000 512.000000"
 preserveAspectRatio="xMidYMid meet">

<g transform="translate(0.000000,512.000000) scale(0.100000,-0.100000)"
fill="#fff" stroke="none">
<path d="M0 2565 l0 -1655 475 0 475 0 0 670 0 670 73 0 c144 0 241 -50 320
-165 27 -38 173 -319 325 -622 l276 -553 533 0 534 0 -17 31 -16 32 38 -7 c22
-3 75 -13 119 -20 224 -40 689 -46 910 -11 430 67 713 231 914 528 126 186
184 460 146 688 -51 309 -229 530 -550 684 -181 87 -535 192 -930 275 -280 59
-376 103 -423 190 -61 116 23 258 182 305 66 20 254 20 329 0 169 -44 283
-164 319 -337 l12 -59 56 5 c30 3 237 15 460 26 223 12 415 23 428 26 20 4 22
9 16 42 -50 290 -171 516 -350 652 -160 120 -361 194 -645 237 -141 21 -572
24 -724 4 -306 -38 -536 -119 -696 -242 l-36 -28 -24 25 c-72 78 -202 156
-322 193 -204 63 -363 71 -1359 71 l-848 0 0 -1655z m1610 957 c131 -43 190
-126 198 -273 5 -101 -11 -162 -59 -228 -44 -58 -100 -88 -225 -116 -99 -23
-131 -25 -341 -25 l-233 0 0 336 0 336 298 -4 c272 -4 302 -6 362 -26z m996
-918 c184 -125 477 -234 864 -324 432 -100 561 -162 628 -301 30 -63 30 -161
0 -227 -45 -95 -155 -175 -276 -201 -90 -19 -255 -14 -344 10 -125 34 -242
122 -304 227 -32 55 -72 170 -80 233 -4 27 -10 51 -14 54 -4 2 -148 -5 -320
-15 -173 -11 -317 -17 -320 -13 -4 5 -29 38 -58 74 -92 118 -152 163 -302 225
-33 13 -49 24 -40 27 8 3 53 18 100 33 143 45 238 100 350 202 25 23 46 41 46
42 1 0 32 -21 70 -46z"/>
</g>
</svg>
